<mxfile host="app.diagrams.net" agent="Mozilla/5.0 (Windows NT 10.0; Win64; x64) AppleWebKit/537.36 (KHTML, like Gecko) Chrome/134.0.0.0 Safari/537.36" version="26.1.1">
  <diagram name="Pagina-1" id="n12wmbz0PGKVMKbr_czU">
    <mxGraphModel dx="877" dy="476" grid="1" gridSize="10" guides="1" tooltips="1" connect="1" arrows="1" fold="1" page="1" pageScale="1" pageWidth="827" pageHeight="1169" math="0" shadow="0">
      <root>
        <mxCell id="0" />
        <mxCell id="1" parent="0" />
        <mxCell id="hgzXxE6BjzCWDYHkFe1_-2" value="" style="strokeWidth=1;shadow=0;dashed=0;align=center;html=1;shape=mxgraph.mockup.containers.browserWindow;rSize=0;strokeColor=#666666;strokeColor2=#008cff;strokeColor3=#c4c4c4;mainText=,;recursiveResize=0;" vertex="1" parent="1">
          <mxGeometry y="70" width="1060" height="820" as="geometry" />
        </mxCell>
        <mxCell id="hgzXxE6BjzCWDYHkFe1_-3" value="Page 1" style="strokeWidth=1;shadow=0;dashed=0;align=center;html=1;shape=mxgraph.mockup.containers.anchor;fontSize=17;fontColor=#666666;align=left;whiteSpace=wrap;" vertex="1" parent="hgzXxE6BjzCWDYHkFe1_-2">
          <mxGeometry x="60" y="12" width="110" height="26" as="geometry" />
        </mxCell>
        <mxCell id="hgzXxE6BjzCWDYHkFe1_-4" value="https://www.draw.io" style="strokeWidth=1;shadow=0;dashed=0;align=center;html=1;shape=mxgraph.mockup.containers.anchor;rSize=0;fontSize=17;fontColor=#666666;align=left;" vertex="1" parent="hgzXxE6BjzCWDYHkFe1_-2">
          <mxGeometry x="130" y="60" width="250" height="26" as="geometry" />
        </mxCell>
        <mxCell id="hgzXxE6BjzCWDYHkFe1_-7" value="" style="rounded=0;whiteSpace=wrap;html=1;" vertex="1" parent="hgzXxE6BjzCWDYHkFe1_-2">
          <mxGeometry x="21" y="230" width="179" height="380" as="geometry" />
        </mxCell>
        <mxCell id="hgzXxE6BjzCWDYHkFe1_-8" value="" style="rounded=0;whiteSpace=wrap;html=1;" vertex="1" parent="hgzXxE6BjzCWDYHkFe1_-2">
          <mxGeometry x="210" y="230" width="820" height="380" as="geometry" />
        </mxCell>
        <mxCell id="hgzXxE6BjzCWDYHkFe1_-9" value="" style="rounded=0;whiteSpace=wrap;html=1;" vertex="1" parent="hgzXxE6BjzCWDYHkFe1_-2">
          <mxGeometry x="21" y="620" width="1009" height="40" as="geometry" />
        </mxCell>
        <mxCell id="hgzXxE6BjzCWDYHkFe1_-11" value="&lt;ul&gt;&lt;li&gt;Pikachu&lt;/li&gt;&lt;li&gt;Charmander&lt;/li&gt;&lt;li&gt;Bulbasaur&lt;/li&gt;&lt;/ul&gt;" style="text;strokeColor=none;fillColor=none;html=1;whiteSpace=wrap;verticalAlign=middle;overflow=hidden;" vertex="1" parent="hgzXxE6BjzCWDYHkFe1_-2">
          <mxGeometry x="21" y="230" width="160" height="80" as="geometry" />
        </mxCell>
        <mxCell id="hgzXxE6BjzCWDYHkFe1_-14" value="Pikachu" style="text;strokeColor=none;fillColor=none;html=1;fontSize=24;fontStyle=1;verticalAlign=middle;align=center;" vertex="1" parent="hgzXxE6BjzCWDYHkFe1_-2">
          <mxGeometry x="250" y="270" width="100" height="40" as="geometry" />
        </mxCell>
        <mxCell id="hgzXxE6BjzCWDYHkFe1_-13" value="&lt;h1 style=&quot;margin-top: 0px;&quot;&gt;&lt;br&gt;&lt;/h1&gt;&lt;p&gt;Lorem ipsum dolor sit amet, consectetur adipisicing elit, sed do eiusmod tempor incididunt ut labore et dolore magna aliqua.&lt;/p&gt;" style="text;html=1;whiteSpace=wrap;overflow=hidden;rounded=0;" vertex="1" parent="hgzXxE6BjzCWDYHkFe1_-2">
          <mxGeometry x="250" y="270" width="180" height="120" as="geometry" />
        </mxCell>
        <mxCell id="hgzXxE6BjzCWDYHkFe1_-16" value="" style="shape=image;verticalLabelPosition=bottom;labelBackgroundColor=default;verticalAlign=top;aspect=fixed;imageAspect=0;image=https://www.stickersmurali.com/it/img/pokgo05-png/folder/products-detalle-png/adesivi-murali-per-bambini-pikachu.png;" vertex="1" parent="hgzXxE6BjzCWDYHkFe1_-2">
          <mxGeometry x="680" y="230" width="340" height="340" as="geometry" />
        </mxCell>
        <mxCell id="hgzXxE6BjzCWDYHkFe1_-20" value="CONTACT US" style="text;strokeColor=none;fillColor=none;html=1;fontSize=24;fontStyle=1;verticalAlign=middle;align=center;" vertex="1" parent="hgzXxE6BjzCWDYHkFe1_-2">
          <mxGeometry x="480" y="620" width="100" height="40" as="geometry" />
        </mxCell>
        <mxCell id="hgzXxE6BjzCWDYHkFe1_-5" value="" style="rounded=0;whiteSpace=wrap;html=1;" vertex="1" parent="1">
          <mxGeometry x="20" y="200" width="1010" height="80" as="geometry" />
        </mxCell>
        <mxCell id="hgzXxE6BjzCWDYHkFe1_-18" value="&lt;font&gt;POKEDEX&lt;/font&gt;" style="text;strokeColor=none;fillColor=none;html=1;fontSize=35;fontStyle=1;verticalAlign=middle;align=center;" vertex="1" parent="1">
          <mxGeometry x="395" y="220" width="270" height="40" as="geometry" />
        </mxCell>
        <mxCell id="hgzXxE6BjzCWDYHkFe1_-21" value="Login" style="html=1;shadow=0;dashed=0;shape=mxgraph.bootstrap.rrect;rSize=5;strokeColor=none;strokeWidth=1;fillColor=#33A64C;fontColor=#FFFFFF;whiteSpace=wrap;align=center;verticalAlign=middle;spacingLeft=0;fontStyle=0;fontSize=16;spacing=5;" vertex="1" parent="1">
          <mxGeometry x="910" y="220" width="90" height="40" as="geometry" />
        </mxCell>
      </root>
    </mxGraphModel>
  </diagram>
</mxfile>
